<svg width="55" height="55" fill="none" xmlns="http://www.w3.org/2000/svg"><path d="M52.422 30.938a.86.86 0 00-.86.859v1.719a2.578 2.578 0 01-2.578 2.578h-2.578V25.78h2.578a2.579 2.579 0 012.578 2.579.859.859 0 101.72 0 4.304 4.304 0 00-3.438-4.212v-.085a22.288 22.288 0 00-5.826-15.046.86.86 0 00-1.271 1.156 20.578 20.578 0 015.378 13.89h-1.719a18.906 18.906 0 00-37.812 0H6.875A20.649 20.649 0 0127.5 3.438a20.405 20.405 0 0112.805 4.46.86.86 0 001.068-1.347A22.104 22.104 0 0027.5 1.72 22.369 22.369 0 005.156 24.063v.085A4.305 4.305 0 001.72 28.36v5.156a4.302 4.302 0 004.297 4.297h2.578a3.438 3.438 0 003.437 3.437h2.578a.86.86 0 00.86-.86v-3.437a.86.86 0 00-1.719 0v2.578h-1.719a1.718 1.718 0 01-1.719-1.718v-4.297a.86.86 0 10-1.718 0v2.578H6.016a2.578 2.578 0 01-2.579-2.578V28.36a2.578 2.578 0 012.579-2.579h2.578v4.297a.86.86 0 001.719 0v-6.015a1.719 1.719 0 011.718-1.72h1.719v11.173a.86.86 0 101.719 0V21.485a.86.86 0 00-.86-.86h-2.578c-.49.002-.975.11-1.42.316a17.173 17.173 0 0133.778 0 3.403 3.403 0 00-1.42-.316H40.39a.859.859 0 00-.86.86V40.39a.86.86 0 00.86.86h2.578a3.438 3.438 0 003.437-3.438h.86v3.437a7.742 7.742 0 01-7.735 7.734h-1.84a3.437 3.437 0 00-3.316-2.578h-3.438a3.437 3.437 0 000 6.875h3.438a3.437 3.437 0 003.316-2.578h1.84a9.464 9.464 0 009.453-9.453v-3.437a4.302 4.302 0 004.297-4.297v-1.719a.859.859 0 00-.86-.86zm-7.734 6.875a1.719 1.719 0 01-1.72 1.718H41.25V22.344h1.719a1.719 1.719 0 011.718 1.719v13.75zm-10.313 13.75h-3.438a1.719 1.719 0 010-3.438h3.438a1.719 1.719 0 010 3.438z" fill="#FF2828"/></svg>