<svg width="57" height="57" fill="none" xmlns="http://www.w3.org/2000/svg"><g clip-path="url(#clip0)" fill="#FF2828"><path d="M35.776 7.102a16.197 16.197 0 00-18.794 3.014c-5.777 5.778-6.355 14.99-1.344 21.428a.897.897 0 001.26.157.898.898 0 00.157-1.26c-4.455-5.725-3.94-13.916 1.198-19.054a14.403 14.403 0 0116.713-2.681.898.898 0 10.81-1.604zm7.174 7.174a.898.898 0 00-1.605.81 14.404 14.404 0 01-2.682 16.71c-5.138 5.138-13.33 5.653-19.054 1.198a.898.898 0 00-1.104 1.418 16.142 16.142 0 009.938 3.405 16.22 16.22 0 0011.49-4.75 16.197 16.197 0 003.016-18.79zm-2.322-3.421a16.355 16.355 0 00-1.434-1.434.898.898 0 10-1.19 1.347 14.776 14.776 0 011.278 1.277.896.896 0 001.268.078.898.898 0 00.078-1.268z"/><path d="M49.66 23.202a3.048 3.048 0 000-3.186l-1.182-1.938a1.264 1.264 0 01-.17-.854l.353-2.238a3.047 3.047 0 00-1.223-2.95l-1.831-1.332a1.265 1.265 0 01-.485-.724l-.533-2.204a3.048 3.048 0 00-2.254-2.255l-2.205-.533a1.264 1.264 0 01-.724-.485l-1.332-1.832a3.046 3.046 0 00-2.95-1.223l-2.239.353a1.264 1.264 0 01-.854-.17L30.093.45a3.049 3.049 0 00-3.186 0L24.97 1.631a1.264 1.264 0 01-.854.17l-2.238-.353c-1.14-.18-2.27.29-2.95 1.223l-1.332 1.831a1.265 1.265 0 01-.724.485l-2.204.533a3.048 3.048 0 00-2.255 2.254L11.88 9.98c-.07.29-.243.548-.485.724l-1.832 1.332a3.047 3.047 0 00-1.223 2.95l.353 2.24c.046.294-.014.598-.17.853L7.34 20.016a3.048 3.048 0 000 3.186l1.182 1.938c.156.255.216.558.17.854l-.353 2.238a3.047 3.047 0 001.223 2.95l1.831 1.332c.242.176.415.433.485.724l.533 2.205a3.048 3.048 0 002.255 2.254l.92.223-6.23 13.895a.898.898 0 00.927 1.26l5.012-.6 2.888 4.14a.898.898 0 001.556-.146l6.362-14.192.806.492a3.055 3.055 0 003.186 0l.835-.51 6.37 14.21a.898.898 0 001.556.146l2.888-4.14 5.012.6a.898.898 0 00.926-1.26l-6.232-13.903.886-.214a3.048 3.048 0 002.254-2.254l.533-2.205c.07-.29.243-.548.485-.724l1.832-1.332a3.047 3.047 0 001.223-2.95l-.352-2.24a1.264 1.264 0 01.169-.853l1.182-1.938zM18.749 54.287l-2.289-3.282a.898.898 0 00-.843-.378l-3.972.475 5.675-12.66c.104.076.197.167.274.273l1.332 1.832c.127.174.27.332.424.472l-2.987 6.664a.898.898 0 001.64.735l2.976-6.64c.293.04.594.04.897-.008l2.239-.353c.134-.02.27-.019.401.003L18.75 54.287zm26.643-3.185l-3.972-.475a.898.898 0 00-.843.378l-2.289 3.282-5.77-12.872a1.22 1.22 0 01.367.003l2.238.352c.315.05.629.048.933.002l2.979 6.646a.898.898 0 101.639-.735l-2.999-6.69c.145-.133.279-.282.398-.446l1.332-1.831c.084-.116.187-.215.302-.295l5.685 12.68zm2.734-28.835l-1.182 1.938a3.064 3.064 0 00-.41 2.068l.352 2.239c.074.47-.12.937-.505 1.218l-1.832 1.332a3.063 3.063 0 00-1.174 1.755l-.533 2.204a1.258 1.258 0 01-.93.93l-2.205.534a3.063 3.063 0 00-1.755 1.174L36.62 39.49c-.28.386-.747.58-1.218.505l-2.238-.352a3.064 3.064 0 00-2.069.41l-1.938 1.182c-.405.247-.91.247-1.314 0l-1.939-1.182a3.063 3.063 0 00-2.068-.41l-2.24.352c-.47.074-.936-.12-1.217-.505l-1.332-1.832a3.063 3.063 0 00-1.755-1.174l-2.204-.533a1.258 1.258 0 01-.93-.93l-.534-2.205a3.063 3.063 0 00-1.174-1.755l-1.832-1.332a1.258 1.258 0 01-.504-1.218l.352-2.238a3.063 3.063 0 00-.41-2.069l-1.182-1.938a1.258 1.258 0 010-1.315l1.182-1.938a3.063 3.063 0 00.41-2.068l-.352-2.24c-.074-.47.12-.937.505-1.217l1.832-1.332a3.063 3.063 0 001.174-1.755l.533-2.204c.112-.462.469-.819.93-.93l2.205-.534a3.062 3.062 0 001.755-1.174l1.332-1.832c.28-.385.747-.579 1.218-.504l2.238.352a3.062 3.062 0 002.069-.41l1.937-1.182a1.26 1.26 0 011.315 0l1.939 1.182a3.062 3.062 0 002.068.41l2.24-.352c.47-.074.936.12 1.217.505l1.332 1.832a3.063 3.063 0 001.755 1.173l2.204.534c.462.112.819.468.93.93l.534 2.205c.17.705.588 1.328 1.174 1.755l1.832 1.332c.385.28.578.747.504 1.218l-.352 2.238c-.112.715.033 1.45.41 2.068l1.182 1.938c.247.406.247.91 0 1.316z"/><path d="M39.01 18.814a1.607 1.607 0 00-1.352-1.11l-5.405-.641-2.28-4.942a1.607 1.607 0 00-1.473-.944c-.641 0-1.206.362-1.474.944l-2.28 4.942-5.405.64a1.607 1.607 0 00-1.353 1.111 1.607 1.607 0 00.442 1.693l3.996 3.696-1.061 5.338c-.125.629.12 1.253.638 1.63a1.616 1.616 0 001.747.103l4.75-2.658 4.749 2.658c.56.313 1.228.274 1.747-.103a1.607 1.607 0 00.638-1.63l-1.061-5.338 3.996-3.696c.47-.435.64-1.083.442-1.693zm-6.026 4.411a.898.898 0 00-.27.835l1.084 5.463-4.86-2.72a.899.899 0 00-.877 0l-4.86 2.72 1.085-5.463a.897.897 0 00-.271-.835l-4.09-3.782 5.532-.655a.898.898 0 00.71-.516l2.332-5.058 2.333 5.058c.131.284.4.479.71.516l5.532.655-4.09 3.782z"/></g><defs><clipPath id="clip0"><path fill="#fff" d="M0 0h57v57H0z"/></clipPath></defs></svg>