<svg width="57" height="57" fill="none" xmlns="http://www.w3.org/2000/svg"><path d="M13.3 37.525a5.706 5.706 0 00-5.7 5.7c0 3.144 2.556 5.7 5.7 5.7s5.7-2.556 5.7-5.7c0-3.143-2.556-5.7-5.7-5.7zm0 9.5a3.804 3.804 0 01-3.8-3.8c0-2.096 1.704-3.8 3.8-3.8s3.8 1.705 3.8 3.8c0 2.096-1.704 3.8-3.8 3.8zm32.3-9.5a5.706 5.706 0 00-5.7 5.7c0 3.144 2.556 5.7 5.7 5.7 3.143 0 5.7-2.556 5.7-5.7 0-3.143-2.556-5.7-5.7-5.7zm0 9.5a3.804 3.804 0 01-3.8-3.8c0-2.096 1.704-3.8 3.8-3.8s3.8 1.705 3.8 3.8c0 2.096-1.704 3.8-3.8 3.8z" fill="#FF2828"/><path d="M56.849 32.261l-8.55-13.3a.95.95 0 00-.799-.436H37.05a.95.95 0 00-.95.95v23.75c0 .525.425.95.95.95h3.8v-1.9H38v-21.85h8.981l8.119 12.63v9.22h-4.75v1.9h5.7a.95.95 0 00.95-.95v-10.45a.948.948 0 00-.151-.514z" fill="#FF2828"/><path d="M41.8 30.875v-6.65h7.6v-1.9h-8.55a.95.95 0 00-.95.95v8.55c0 .525.425.95.95.95H55.1v-1.9H41.8zm-4.75-19H.95a.95.95 0 00-.95.95v30.4c0 .525.426.95.95.95h7.6v-1.9H1.9v-28.5h34.2v28.5H18.05v1.9h19a.95.95 0 00.95-.95v-30.4a.95.95 0 00-.95-.95z" fill="#FF2828"/><path d="M6.65 38.475H.95v1.9h5.7v-1.9zm29.45 0H19.95v1.9H36.1v-1.9zm19.95 0h-3.8v1.9h3.8v-1.9zm-19-22.8H3.8v1.9h33.25v-1.9zm-22.8 26.6h-1.9v1.9h1.9v-1.9zm32.3 0h-1.9v1.9h1.9v-1.9zM17.1 8.075H3.8v1.9h13.3v-1.9zm-15.2 0H0v1.9h1.9v-1.9z" fill="#FF2828"/></svg>