<svg width="251" height="233" fill="none" xmlns="http://www.w3.org/2000/svg"><path d="M170.303 65.625c0 47.289-38.124 85.625-85.151 85.625C38.123 151.25 0 112.914 0 65.625 0 18.335 38.124-20 85.151-20c47.028 0 85.152 38.336 85.152 85.625z" fill="#E9F4FF"/><path d="M281 108.438c0 47.289-38.124 85.624-85.152 85.624-47.027 0-85.151-38.335-85.151-85.624 0-47.29 38.124-85.626 85.151-85.626 47.028 0 85.152 38.336 85.152 85.626z" fill="#E9F4FF"/><path d="M184.495 168.375c0 47.289-38.124 85.625-85.152 85.625-47.027 0-85.151-38.336-85.151-85.625S52.316 82.75 99.343 82.75c47.028 0 85.152 38.336 85.152 85.625z" fill="#E9F4FF"/></svg>