<svg width="397" height="388" fill="none" xmlns="http://www.w3.org/2000/svg"><path d="M240.606 121.25c0 66.965-53.861 121.25-120.303 121.25C53.862 242.5 0 188.215 0 121.25S53.861 0 120.303 0c66.442 0 120.303 54.285 120.303 121.25z" fill="#E9F4FF"/><path d="M397 181.875c0 66.965-53.862 121.25-120.303 121.25-66.442 0-120.303-54.285-120.303-121.25s53.861-121.25 120.303-121.25C343.138 60.625 397 114.91 397 181.875z" fill="#E9F4FF"/><path d="M260.657 266.75c0 66.965-53.862 121.25-120.303 121.25C73.912 388 20.05 333.715 20.05 266.75S73.912 145.5 140.355 145.5c66.441 0 120.303 54.285 120.303 121.25z" fill="#E9F4FF"/></svg>