<svg width="21" height="23" fill="none" xmlns="http://www.w3.org/2000/svg"><path d="M11.373 13.898c2.53-2.59 5.832-1.624 6.957-1.198l.063-.486a.328.328 0 01.037-.133.311.311 0 01.427-.129l.707.397.786-.152a.309.309 0 01.1-.003.32.32 0 01.273.36l-.15.81.387.722a.318.318 0 01-.236.473l-.797.105-.549.594a.312.312 0 01-.519-.077l-.34-.735-.727-.352a.327.327 0 01-.085-.529l.315-.302c-1.084-.403-3.981-1.179-6.203 1.091a.31.31 0 01-.446 0 .328.328 0 010-.456zm7.51.013a.32.32 0 01.15.156l.193.426.315-.341a.31.31 0 01.208-.1l.438-.058-.22-.411a.326.326 0 01-.032-.226l.083-.45-.45.088a.306.306 0 01-.208-.035l-.403-.226-.056.446a.324.324 0 01-.098.213h-.008l-.33.318.417.2zM.029 21.591l2.293-5.488.725-1.731a.332.332 0 01.019-.043l1.55-3.724.003-.005a.312.312 0 01.414-.165l.03.015.033.017a13.99 13.99 0 011.676.993l.04.026.01-.005a12.86 12.86 0 011.921 1.614 13.588 13.588 0 012.589 3.794c.074.16.008.35-.148.426h-.013l-4.397 1.919-.042.017-.93.407-.66.298-.042.02-1.599.7-.041.02-3.014 1.322a.309.309 0 01-.261 0 .325.325 0 01-.156-.427zm10.194-4.568l.396-.172a13.34 13.34 0 00-.396-.742v.914zm-1.64.717l1.015-.442V15.12h-.002c-.31-.445-.649-.869-1.013-1.268v3.888zm-1.64.72l1.012-.443v-4.805c-.322-.304-.66-.59-1.013-.857v6.105zm-1.651.716l.254-.11.757-.333v-6.821l.01-.004a13.857 13.857 0 00-1.021-.618v7.886zm-1.64.723l1.01-.444v-7.33l-1.01 2.417V19.9zm-1.633.714l1.013-.443v-4.136l-.13.32-.883 2.104v2.155zm-.625.281v-.94l-.483 1.151.483-.21zm8.539-8.469a.31.31 0 01-.446 0 .328.328 0 010-.456l.89-.91a.31.31 0 01.446 0 .328.328 0 010 .456l-.89.91zm-.236-9.11l-.481.064c.427 1.145 1.36 4.527-1.17 7.113a.31.31 0 01-.476.002.327.327 0 01.03-.454c2.22-2.27 1.462-5.235 1.064-6.344l-.296.329a.312.312 0 01-.513-.085l-.344-.744-.73-.352a.327.327 0 01-.075-.53l.582-.562.1-.824A.325.325 0 017.425.81a.309.309 0 01.426-.123l.708.398.792-.153a.308.308 0 01.12.001c.17.036.28.206.245.38l-.15.804.388.723a.328.328 0 01.038.133.32.32 0 01-.295.342zm-.77-1.198l.085-.46-.44.085a.307.307 0 01-.221-.032l-.402-.226-.057.448a.323.323 0 01-.098.213l-.333.322.417.198c.067.031.12.085.152.153l.196.427.313-.35a.312.312 0 01.208-.1l.434-.053-.221-.412a.326.326 0 01-.034-.213zm3.238 8.031a.311.311 0 01-.447.006.328.328 0 01-.005-.458l.89-.91a.31.31 0 01.389-.002.327.327 0 01.055.452l-.882.912zm6.313-2.954l-1.507.196-1.042 1.126a.312.312 0 01-.519-.077l-.506-1.096-.52.531a.31.31 0 01-.445 0 .328.328 0 010-.456l.519-.53-1.072-.519a.327.327 0 01-.083-.524l1.107-1.066.19-1.52a.327.327 0 01.037-.134.311.311 0 01.427-.128l1.332.748 1.488-.288a.308.308 0 01.13-.003.322.322 0 01.252.376l-.284 1.529.732 1.362a.32.32 0 01.037.117.318.318 0 01-.273.356zm-1.102-1.628a.326.326 0 01-.03-.222l.209-1.166-1.153.213a.306.306 0 01-.208-.034l-1.028-.576-.148 1.188a.322.322 0 01-.096.194l-.852.829 1.042.5a.318.318 0 01.18.182l.49 1.064.802-.872a.31.31 0 01.208-.1l1.146-.15-.562-1.05z" fill="#FF2828"/></svg>