<svg width="24" height="24" fill="none" xmlns="http://www.w3.org/2000/svg"><path d="M22.287 12.055a.588.588 0 00-.755-.35l-5.513 2.02 4.456-4.454a.587.587 0 000-.833L17.028 4.99a.588.588 0 00-.832 0l-4.371 4.368 2.451-5.815a.588.588 0 00-.314-.77L9.47.876a.588.588 0 00-.77.313L6.276 6.934V.819A.589.589 0 005.69.23H.59A.589.589 0 000 .82v22.36a.59.59 0 00.588.589h5.1a.59.59 0 00.204-.039c.064.023.13.039.2.039a.585.585 0 00.202-.036l17.32-6.346a.588.588 0 00.35-.754l-1.677-4.579zM3.479 22.593H1.177V1.407H5.1v21.186H3.48zm9.484-18.966l-3.345 7.936L9.012 13l-.607 1.438-1.034 2.454-.626 1.483-.468 1.112V9.964L9.554 2.19l3.41 1.437zM8.256 17.821l.626-1.482 1.73-4.107 5.999-5.994 2.616 2.616-5.837 5.833-1.98 1.979-4.608 4.604 1.454-3.45zm-.442 4.102l6.224-6.22 7.346-2.69 1.272 3.473-14.842 5.437z" fill="#fff"/><path d="M3.139 20.173c-.026 0-.05.006-.076.008a.844.844 0 00-.749.643.843.843 0 00.138.697.847.847 0 00.687.352.77.77 0 00.12-.012.84.84 0 00.722-.763c.002-.025.007-.05.007-.075a.85.85 0 00-.85-.85z" fill="#fff"/></svg>