<svg width="32" height="32" fill="none" xmlns="http://www.w3.org/2000/svg"><path d="M27 1.067h-7.75c-2.757 0-5 2.243-5 5v2.5a1.25 1.25 0 102.5 0v-2.5c0-1.379 1.122-2.5 2.5-2.5H27c1.378 0 2.5 1.121 2.5 2.5v19.866c0 1.379-1.122 2.5-2.5 2.5h-7.75a2.503 2.503 0 01-2.5-2.5v-2.5a1.25 1.25 0 10-2.5 0v2.5c0 2.757 2.243 5 5 5H27c2.757 0 5-2.243 5-5V6.067c0-2.757-2.243-5-5-5z" fill="#95CECE"/><path d="M25.495 13.348l-4.674-4.67a1.25 1.25 0 00-1.767 1.769l4.674 4.67c.487.486.487 1.28 0 1.767l-.006.005-4.674 4.733a1.25 1.25 0 001.779 1.756l4.671-4.73a3.754 3.754 0 00-.003-5.3z" fill="#95CECE"/><path d="M19.063 14.75H5.75a1.25 1.25 0 100 2.5h13.313a1.25 1.25 0 100-2.5z" fill="#95CECE"/></svg>