<svg width="19" height="19" fill="none" xmlns="http://www.w3.org/2000/svg"><path d="M.89 18.407h.594a.296.296 0 00.096-.017l11.282-3.859a.296.296 0 00.114-.07l.593-.595a.298.298 0 000-.42l-7.422-7.42a.297.297 0 00-.42 0l-.593.593a.297.297 0 00-.064.096L.617 17.402a.297.297 0 00-.023.114v.594a.297.297 0 00.297.297zm7.788-3.072l-1.925.658-4.24-1.6.494-1.184 5.67 2.126zM3.235 12.66l.494-1.184 7.743 2.903-1.91.654-6.327-2.373zm2.636 3.635l-1.898.65-2.182-.819.494-1.184 3.586 1.353zm6.733-2.303l-.248.084-8.398-3.149.493-1.185 7.319 2.745 1.17 1.17-.336.335zm-1.849-2.52L4.68 9.194l.493-1.185 3.39 1.272 2.192 2.191zM5.937 6.654L7.55 8.266l-2.147-.805.193-.464.343-.343zm-4.75 10.921l.376-.9 1.526.572-1.654.566h-.248v-.238zM7.212 5.728a.297.297 0 000 .42l.89.89a.297.297 0 00.436-.016L9.86 5.479a2.202 2.202 0 00-.975-3.523L8.53 1.84A2.837 2.837 0 017.075.726a.297.297 0 00-.412-.082l-.89.594a.297.297 0 00-.073.425l.367.49c.374.498.873.89 1.447 1.136l.773.331a.533.533 0 01.166.867L7.212 5.728zM8.52 3.075l-.773-.332a2.973 2.973 0 01-1.205-.947l-.179-.238.394-.263c.412.514.962.898 1.586 1.107l.354.118a1.608 1.608 0 01.713 2.572l-1.114 1.3-.454-.454 1.031-1.032a1.126 1.126 0 00-.353-1.831zm2.568-.629a.297.297 0 00-.1.274l.297 1.781a.296.296 0 00.479.183l1.484-1.187a.297.297 0 00-.092-.513l-1.78-.594a.297.297 0 00-.288.056zm1.363.928l-.663.53-.133-.795.796.265zM9.73 1.477l.144-.576 1.187.298-.144.576-1.188-.298zm2.87-.244l.891-.594.33.494-.89.594-.33-.494z" fill="#FF2828"/><path d="M5.65 3.335l.576-.144.297 1.187-.576.144-.297-1.187zm12.624 8.59a2.837 2.837 0 01-1.112-1.456l-.118-.354a2.201 2.201 0 00-3.522-.975l-1.543 1.322a.297.297 0 00-.017.436l.89.89a.297.297 0 00.42 0l1.242-1.241a.532.532 0 01.866.166l.331.774a3.568 3.568 0 001.137 1.446l.49.367a.295.295 0 00.34.011.297.297 0 00.085-.084l.593-.89a.297.297 0 00-.082-.412zm-.831.712l-.238-.179a2.973 2.973 0 01-.948-1.205l-.331-.773a1.126 1.126 0 00-1.832-.353l-1.031 1.031-.455-.454 1.3-1.114a1.608 1.608 0 012.573.713l.118.354a3.432 3.432 0 001.106 1.586l-.262.394zm.057-4.715l-.593-1.781a.296.296 0 00-.514-.092l-1.187 1.484a.296.296 0 00.044.416c.04.033.088.054.139.063l1.781.297a.297.297 0 00.33-.387zm-1.515-.413l.53-.663.266.796-.796-.133zM17.23 8.97l.575-.145.298 1.187-.576.144-.297-1.187zm.044-2.898l.594-.89.494.33-.594.89-.494-.33z" fill="#FF2828"/><path d="M14.48 13.061l.144-.576 1.187.298-.144.576-1.188-.298zm3.917-9.571l-.296-1.187a.297.297 0 00-.367-.215l-2.296.627a1.957 1.957 0 00-1.399 1.467 2.13 2.13 0 01-1.845 1.652l-.034.004a2.615 2.615 0 00-1.703.9L9.275 8.12a.297.297 0 00.015.403l.89.89a.297.297 0 00.439-.019l.801-.963a2.3 2.3 0 011.55-.82l.035-.003a2.841 2.841 0 002.505-2.279l.008-.043a1.374 1.374 0 011.05-1.076l1.606-.357a.297.297 0 00.223-.362zm-1.957.14a1.968 1.968 0 00-1.505 1.54l-.008.044a2.234 2.234 0 01-1.981 1.802l-.035.004a2.89 2.89 0 00-1.947 1.03l-.593.713-.467-.466 1.004-1.172a2.024 2.024 0 011.318-.697l.033-.004a2.723 2.723 0 002.36-2.113 1.363 1.363 0 01.975-1.023l2.004-.547.15.598-1.308.29z" fill="#FF2828"/></svg>