<svg width="21" height="21" fill="none" xmlns="http://www.w3.org/2000/svg"><g clip-path="url(#clip0)" fill="#FF2828"><path d="M12.694 8.302a.412.412 0 01-.137-.024L10.5 7.547l-2.056.731a.41.41 0 01-.548-.398l.06-2.182-1.33-1.73a.41.41 0 01.208-.643l2.094-.617 1.234-1.8a.41.41 0 01.677 0l1.234 1.8 2.093.617a.41.41 0 01.21.643l-1.332 1.73.06 2.182a.41.41 0 01-.41.422zM7.64 3.942l1.055 1.372a.41.41 0 01.085.261l-.047 1.73 1.63-.58a.41.41 0 01.275 0l1.63.58-.048-1.73a.409.409 0 01.085-.261l1.055-1.371-1.66-.49a.41.41 0 01-.221-.161L10.5 1.865l-.978 1.427a.41.41 0 01-.222.161l-1.66.49zm8.838.583a.41.41 0 01-.41-.421l.026-.92-.561-.728a.41.41 0 01.209-.644l.882-.26.52-.758a.41.41 0 01.677 0l.52.758.882.26a.41.41 0 01.209.644l-.561.729.025.919a.41.41 0 01-.547.398l-.867-.308-.866.308a.412.412 0 01-.138.023zm1.004-1.177a.41.41 0 01.138.024l.44.156-.013-.467a.408.408 0 01.085-.261l.285-.37-.448-.132a.41.41 0 01-.223-.162l-.264-.385-.264.385a.41.41 0 01-.222.162l-.448.132.285.37a.41.41 0 01.084.261l-.012.467.44-.156a.41.41 0 01.137-.024zM4.521 4.525a.412.412 0 01-.137-.023l-.867-.308-.866.308a.41.41 0 01-.547-.398l.025-.92-.561-.728a.41.41 0 01.21-.644l.881-.26.52-.759a.41.41 0 01.677 0l.52.759.882.26a.41.41 0 01.209.644l-.56.728.024.92a.41.41 0 01-.41.421zM3.517 3.348c.047 0 .094.008.138.024l.44.156-.013-.467a.41.41 0 01.085-.261l.285-.37-.448-.132a.41.41 0 01-.223-.162l-.264-.385-.264.385a.41.41 0 01-.222.162l-.448.132.285.37a.41.41 0 01.085.261l-.013.467.44-.156a.408.408 0 01.137-.024zM10.5 17.576a.408.408 0 01-.34-.183.392.392 0 01-.062-.148.408.408 0 01.56-.458.39.39 0 01.133.088.392.392 0 01.088.133.39.39 0 01.032.157.392.392 0 01-.032.157.412.412 0 01-.378.254zm0-1.354a.41.41 0 01-.41-.41V9.044a.41.41 0 01.82 0v6.768a.41.41 0 01-.41.41zm6.962-2.614a.41.41 0 01-.37-.234l-.737-1.55-1.551-.738a.41.41 0 01-.106-.668l1.247-1.18.222-1.703a.41.41 0 01.603-.307l1.508.821 1.687-.315a.41.41 0 01.479.479L20.129 9.9l.821 1.508a.41.41 0 01-.307.603l-1.703.222-1.18 1.247a.41.41 0 01-.298.128zm-1.765-3.006l1.142.543a.41.41 0 01.194.194l.543 1.142.869-.918a.41.41 0 01.245-.125l1.253-.163-.604-1.11a.41.41 0 01-.043-.272l.232-1.243-1.243.232a.41.41 0 01-.271-.043l-1.111-.604-.163 1.253a.409.409 0 01-.125.245l-.918.87z"/><path d="M11.224 20.441a.41.41 0 01-.408-.452c.268-2.601 1.52-4.577 2.524-5.776 1.083-1.295 2.107-1.984 2.15-2.013a.41.41 0 01.455.683c-.039.026-.968.65-1.976 1.856-.93 1.112-2.09 2.94-2.337 5.334a.41.41 0 01-.408.368zm-7.687-6.833a.41.41 0 01-.298-.128l-1.18-1.247-1.702-.222a.41.41 0 01-.308-.603l.822-1.507-.315-1.688a.41.41 0 01.478-.479l1.688.315 1.508-.82a.41.41 0 01.602.306l.222 1.703 1.248 1.18a.41.41 0 01-.106.668l-1.551.738-.737 1.55a.41.41 0 01-.37.234zm-2.48-2.333l1.253.163a.41.41 0 01.245.125l.869.919.543-1.142a.41.41 0 01.194-.195l1.142-.543-.918-.869a.41.41 0 01-.125-.244l-.164-1.254-1.11.605a.41.41 0 01-.271.043L1.472 8.65l.232 1.242a.409.409 0 01-.043.272l-.605 1.11z"/><path d="M9.776 20.44a.41.41 0 01-.407-.367c-.248-2.395-1.408-4.222-2.337-5.334-1.008-1.205-1.937-1.83-1.977-1.856a.41.41 0 11.455-.683c.043.029 1.068.718 2.15 2.013 1.004 1.2 2.256 3.175 2.525 5.776a.41.41 0 01-.409.452zm3.946-.076a.41.41 0 01-.372-.581c.626-1.365 1.67-2.208 2.434-2.674.811-.494 1.47-.678 1.543-.697a.41.41 0 01.21.792 5.68 5.68 0 00-1.326.605c-.667.407-1.576 1.14-2.116 2.316a.41.41 0 01-.373.24zm-6.056 0a.41.41 0 01-.373-.239c-.54-1.177-1.448-1.909-2.116-2.316a5.677 5.677 0 00-1.327-.605.41.41 0 11.212-.792c.072.02.731.203 1.542.697.765.466 1.809 1.309 2.435 2.674a.41.41 0 01-.373.581zm11.441-5.209a.41.41 0 01-.41-.41v-.342a.41.41 0 01.82 0v.342a.41.41 0 01-.41.41zm0 1.852a.41.41 0 01-.41-.41v-.342a.41.41 0 01.82 0v.342a.41.41 0 01-.41.41zm1.097-1.097h-.342a.41.41 0 010-.82h.342a.41.41 0 110 .82zm-1.852 0h-.342a.41.41 0 010-.82h.342a.41.41 0 010 .82zm-16.459-.755a.41.41 0 01-.41-.41v-.342a.41.41 0 11.82 0v.342a.41.41 0 01-.41.41zm0 1.852a.41.41 0 01-.41-.41v-.342a.41.41 0 01.82 0v.342a.41.41 0 01-.41.41zM2.99 15.91h-.342a.41.41 0 010-.82h.342a.41.41 0 010 .82zm-1.852 0H.796a.41.41 0 010-.82h.342a.41.41 0 010 .82z"/></g><defs><clipPath id="clip0"><path fill="#fff" d="M0 0h21v21H0z"/></clipPath></defs></svg>