<svg width="34" height="34" fill="none" xmlns="http://www.w3.org/2000/svg"><path d="M10.954 21.98H29.02a.996.996 0 00.957-.722l3.985-13.945a.996.996 0 00-.958-1.27H8.657L7.945 2.84a.996.996 0 00-.972-.78H.996a.996.996 0 100 1.992h5.178L9.77 20.235a2.993 2.993 0 00-1.801 2.742 2.992 2.992 0 002.988 2.988H29.02a.996.996 0 100-1.992H10.957a.997.997 0 01-.003-1.992zm20.73-13.945l-3.416 11.953H11.756L9.1 8.035h22.583zM9.96 28.953a2.992 2.992 0 002.99 2.988 2.992 2.992 0 002.988-2.988 2.992 2.992 0 00-2.989-2.988 2.992 2.992 0 00-2.988 2.988zm2.99-.996a.997.997 0 010 1.992.997.997 0 01-.997-.996c0-.55.447-.996.996-.996zm11.09.996a2.992 2.992 0 002.987 2.988 2.992 2.992 0 002.989-2.988 2.992 2.992 0 00-2.989-2.988 2.992 2.992 0 00-2.988 2.988zm2.987-.996a.997.997 0 010 1.992.997.997 0 01-.996-.996c0-.55.447-.996.996-.996z" fill="#95CECE"/></svg>