<svg width="67" height="67" fill="none" xmlns="http://www.w3.org/2000/svg"><g clip-path="url(#clip0)" fill="#FF2828"><path d="M40.5 26.487c-.147 0-.295-.025-.438-.076L33.5 24.078l-6.562 2.333a1.309 1.309 0 01-1.746-1.269l.191-6.962-4.247-5.52a1.308 1.308 0 01.667-2.052l6.68-1.97 3.937-5.744a1.31 1.31 0 012.16 0l3.937 5.745 6.68 1.969a1.308 1.308 0 01.667 2.053l-4.247 5.52.192 6.961a1.31 1.31 0 01-1.309 1.345zM24.375 12.578l3.366 4.376c.184.238.28.532.271.833l-.152 5.518 5.202-1.849c.283-.1.593-.1.877 0l5.2 1.85-.151-5.519a1.305 1.305 0 01.27-.833l3.367-4.376-5.295-1.56a1.306 1.306 0 01-.71-.516L33.5 5.95l-3.12 4.553c-.17.248-.421.43-.71.515l-5.295 1.561zm28.2 1.86a1.31 1.31 0 01-1.308-1.345l.08-2.933-1.789-2.326a1.31 1.31 0 01.667-2.053l2.815-.83 1.658-2.42a1.31 1.31 0 012.16 0l1.658 2.42 2.814.83a1.31 1.31 0 01.668 2.053l-1.79 2.326.081 2.933a1.307 1.307 0 01-1.746 1.269l-2.765-.983-2.764.983a1.34 1.34 0 01-.44.076zm3.203-3.756c.148 0 .296.025.438.075l1.404.5-.04-1.49a1.305 1.305 0 01.27-.834l.909-1.181-1.43-.422a1.309 1.309 0 01-.71-.515l-.842-1.23-.842 1.23a1.3 1.3 0 01-.71.515l-1.429.422.91 1.18c.182.24.278.534.27.835l-.041 1.49 1.404-.5c.142-.05.29-.075.439-.075zm-41.353 3.756c-.147 0-.295-.025-.439-.076l-2.764-.983-2.764.983a1.31 1.31 0 01-1.747-1.269l.08-2.933-1.789-2.326a1.308 1.308 0 01.668-2.053l2.814-.83 1.659-2.42a1.31 1.31 0 012.159 0l1.659 2.42 2.813.83a1.308 1.308 0 01.668 2.053l-1.79 2.326.081 2.933a1.309 1.309 0 01-1.308 1.345zm-3.203-3.756c.148 0 .297.025.439.075l1.404.5-.041-1.49a1.307 1.307 0 01.27-.834l.91-1.181-1.43-.422a1.306 1.306 0 01-.71-.515l-.842-1.23-.842 1.23c-.17.249-.421.43-.71.515l-1.429.422.909 1.18c.183.24.279.534.27.835l-.04 1.49 1.404-.5c.142-.05.29-.075.438-.075zM33.5 56.074a1.3 1.3 0 01-.5-.101 1.292 1.292 0 01-.707-.708A1.298 1.298 0 0133 53.557a1.318 1.318 0 01.755-.075 1.318 1.318 0 01.952.782c.033.08.06.162.075.246a1.262 1.262 0 01-.075.755 1.297 1.297 0 01-.708.708 1.3 1.3 0 01-.5.1zm0-4.319a1.308 1.308 0 01-1.308-1.308V28.854a1.309 1.309 0 012.617 0v21.593c0 .722-.586 1.308-1.308 1.308zm22.213-8.338a1.308 1.308 0 01-1.182-.747l-2.352-4.948-4.947-2.352a1.307 1.307 0 01-.338-2.132l3.979-3.765.708-5.432a1.309 1.309 0 011.923-.98l4.81 2.62 5.385-1.005a1.307 1.307 0 011.527 1.526l-1.005 5.385 2.62 4.81a1.309 1.309 0 01-.98 1.924l-5.432.708-3.766 3.978c-.249.264-.593.41-.95.41zm-5.633-9.59l3.643 1.732c.272.129.491.348.62.62l1.732 3.643 2.773-2.93c.207-.219.483-.36.781-.398l4-.521-1.93-3.543a1.31 1.31 0 01-.136-.866l.74-3.965-3.965.74a1.31 1.31 0 01-.866-.137l-3.543-1.93-.521 4c-.039.299-.18.575-.398.782l-2.93 2.773z"/><path d="M35.81 65.216a1.31 1.31 0 01-1.303-1.443c.857-8.297 4.852-14.6 8.052-18.427 3.457-4.133 6.725-6.33 6.862-6.421a1.309 1.309 0 111.45 2.178c-.124.083-3.088 2.075-6.304 5.922-2.966 3.547-6.668 9.378-7.457 17.018a1.309 1.309 0 01-1.3 1.173zM11.287 43.417c-.357 0-.701-.146-.95-.41L6.57 39.03l-5.432-.708a1.308 1.308 0 01-.98-1.923l2.62-4.81-1.005-5.386A1.307 1.307 0 013.3 24.676l5.385 1.005 4.81-2.62a1.31 1.31 0 011.924.98l.708 5.432 3.979 3.765a1.31 1.31 0 01-.338 2.133l-4.948 2.352-2.351 4.947a1.31 1.31 0 01-1.182.747zM3.37 35.973l4 .521c.298.039.574.18.78.398l2.774 2.93 1.732-3.643c.129-.272.348-.491.62-.62l3.643-1.732-2.93-2.773a1.306 1.306 0 01-.398-.781l-.521-4-3.543 1.93a1.31 1.31 0 01-.866.136l-3.965-.74.74 3.965a1.31 1.31 0 01-.137.866l-1.93 3.543z"/><path d="M31.191 65.216c-.662 0-1.23-.5-1.3-1.174-.79-7.64-4.49-13.47-7.457-17.017-3.215-3.844-6.18-5.839-6.305-5.922a1.309 1.309 0 111.451-2.178c.138.091 3.408 2.29 6.862 6.421 3.2 3.827 7.195 10.13 8.053 18.427a1.309 1.309 0 01-1.304 1.443zm12.589-.244a1.31 1.31 0 01-1.188-1.854c1.998-4.356 5.328-7.044 7.77-8.532 2.586-1.577 4.688-2.162 4.92-2.224a1.308 1.308 0 11.673 2.529c-.019.005-1.92.521-4.232 1.93-2.13 1.298-5.03 3.633-6.752 7.388-.22.48-.694.763-1.19.763zm-19.32 0a1.31 1.31 0 01-1.19-.763c-1.722-3.755-4.622-6.09-6.752-7.388-2.311-1.409-4.214-1.925-4.233-1.93a1.308 1.308 0 11.675-2.529c.232.062 2.334.648 4.92 2.224 2.442 1.488 5.771 4.176 7.769 8.532a1.309 1.309 0 01-1.189 1.854zm36.5-16.621a1.309 1.309 0 01-1.309-1.308v-1.09a1.309 1.309 0 012.618 0v1.09c0 .722-.586 1.308-1.309 1.308zm0 5.909a1.31 1.31 0 01-1.309-1.309v-1.09a1.31 1.31 0 012.618 0v1.09a1.31 1.31 0 01-1.309 1.309zm3.5-3.5h-1.09a1.31 1.31 0 010-2.617h1.09a1.308 1.308 0 110 2.618zm-5.909 0h-1.09a1.309 1.309 0 010-2.617h1.09a1.308 1.308 0 110 2.618zM6.04 48.351a1.308 1.308 0 01-1.309-1.308v-1.09a1.308 1.308 0 112.617 0v1.09c0 .722-.586 1.308-1.308 1.308zm0 5.909a1.309 1.309 0 01-1.31-1.31v-1.09a1.309 1.309 0 012.617 0v1.09a1.31 1.31 0 01-1.308 1.309zm3.499-3.5h-1.09a1.309 1.309 0 010-2.617h1.09a1.308 1.308 0 110 2.618zm-5.909 0H2.54a1.31 1.31 0 010-2.617h1.09a1.309 1.309 0 110 2.618z"/></g><defs><clipPath id="clip0"><path fill="#fff" d="M0 0h67v67H0z"/></clipPath></defs></svg>